# xmcd
#
# Track frame offsets:
#	150
#	21971
#	41563
#	56362
#	71162
#	85056
#	98107
#	113171
#	130520
#	141049
#	159290
#	175092
#	186910
#	201151
#	211353
#	223736
#	236982
#	250882
#	265494
#	276160
#
# Disc length: 3923 seconds
#
# Revision: 0
# Processed by: cddbd v1.5.2PL0 Copyright (c) Steve Scherf et al.
# Submitted via: EasyCDDAExtractor 10.2.0.1
#
DISCID=280f5114
DTITLE=Various Artist - Circuit Rider Records Vol. 40
DYEAR=2003
DGENRE=Gospel
TTITLE0=Bobby Fletcher - Called
TTITLE1=Lyle Stubbs - You Saved My Soul From A Burning Hell
TTITLE2=Aver Harreld - He'll Bring You Through The Fire
TTITLE3=Tommy Smith - I Took A Walk Back To Jesus
TTITLE4=Jackie Cox - Ride Off Into The Sunset
TTITLE5=Marvin Morrow - Life Is Like A Cotton Row
TTITLE6=Katy Coker - Just A Little Talk With Jesus
TTITLE7=The Helms - Healing Hands
TTITLE8=Lorie Hutchenson - My Worst Days Now
TTITLE9=Gloryroad Singers - Painful Memories
TTITLE10=Dobbie and Krista Poyner - Sweet Prairie Hay
TTITLE11=Patti Workman - Run  Devil, Run
TTITLE12=Them Bowmans - If Tomorrow Never Comes
TTITLE13=The Chapmans - Jesus Beat The Devil With An Ugly Stick
TTITLE14=Sarah Ledford - Nothing Like Love
TTITLE15=Paul Jones - Living Bread
TTITLE16=Travis Lewis - Last Rodeo
TTITLE17=Glorya Wilson - Mommie I'm Not Jesus
TTITLE18=The Marksmen - Preach The Cross
TTITLE19=The Flowers Family - Once Was Enough
EXTD=
EXTT0=
EXTT1=
EXTT2=
EXTT3=
EXTT4=
EXTT5=
EXTT6=
EXTT7=
EXTT8=
EXTT9=
EXTT10=
EXTT11=
EXTT12=
EXTT13=
EXTT14=
EXTT15=
EXTT16=
EXTT17=
EXTT18=
EXTT19=
PLAYORDER=
